<?xml version="1.0" encoding="UTF-8" standalone="no"?>
<!-- Created with Inkscape (http://www.inkscape.org/) -->

<svg
   version="1.1"
   id="svg2904"
   width="2560"
   height="1440"
   viewBox="0 0 2560 1440"
   sodipodi:docname="temp2.png.svg"
   inkscape:version="1.1.2 (0a00cf5339, 2022-02-04, custom)"
   inkscape:export-filename="/home/anand/Pictures/final1.png"
   inkscape:export-xdpi="96"
   inkscape:export-ydpi="96"
   xmlns:inkscape="http://www.inkscape.org/namespaces/inkscape"
   xmlns:sodipodi="http://sodipodi.sourceforge.net/DTD/sodipodi-0.dtd"
   xmlns="http://www.w3.org/2000/svg"
   xmlns:svg="http://www.w3.org/2000/svg">
  <defs
     id="defs2908">
    <inkscape:path-effect
       effect="skeletal"
       id="path-effect16067"
       is_visible="true"
       lpeversion="1"
       pattern="M 0,18.867925 C 0,8.4528302 8.4528302,0 18.867925,0 c 10.415094,0 18.867924,8.4528302 18.867924,18.867925 0,10.415094 -8.45283,18.867924 -18.867924,18.867924 C 8.4528302,37.735849 0,29.283019 0,18.867925 Z"
       copytype="single_stretched"
       prop_scale="1"
       scale_y_rel="false"
       spacing="0"
       normal_offset="0"
       tang_offset="0"
       prop_units="false"
       vertical_pattern="false"
       hide_knot="false"
       fuse_tolerance="0" />
    <inkscape:path-effect
       effect="skeletal"
       id="path-effect16063"
       is_visible="true"
       lpeversion="1"
       pattern="M 0,18.867925 C 0,8.4528302 8.4528302,0 18.867925,0 c 10.415094,0 18.867924,8.4528302 18.867924,18.867925 0,10.415094 -8.45283,18.867924 -18.867924,18.867924 C 8.4528302,37.735849 0,29.283019 0,18.867925 Z"
       copytype="single_stretched"
       prop_scale="1"
       scale_y_rel="false"
       spacing="0"
       normal_offset="0"
       tang_offset="0"
       prop_units="false"
       vertical_pattern="false"
       hide_knot="false"
       fuse_tolerance="0" />
    <inkscape:path-effect
       effect="skeletal"
       id="path-effect16059"
       is_visible="true"
       lpeversion="1"
       pattern="M 0,18.867925 C 0,8.4528302 8.4528302,0 18.867925,0 c 10.415094,0 18.867924,8.4528302 18.867924,18.867925 0,10.415094 -8.45283,18.867924 -18.867924,18.867924 C 8.4528302,37.735849 0,29.283019 0,18.867925 Z"
       copytype="single_stretched"
       prop_scale="0.5"
       scale_y_rel="false"
       spacing="0"
       normal_offset="0"
       tang_offset="0"
       prop_units="false"
       vertical_pattern="false"
       hide_knot="false"
       fuse_tolerance="0" />
    <inkscape:path-effect
       effect="skeletal"
       id="path-effect16055"
       is_visible="true"
       lpeversion="1"
       pattern="M 0,18.867925 C 0,8.4528302 8.4528302,0 18.867925,0 c 10.415094,0 18.867924,8.4528302 18.867924,18.867925 0,10.415094 -8.45283,18.867924 -18.867924,18.867924 C 8.4528302,37.735849 0,29.283019 0,18.867925 Z"
       copytype="single_stretched"
       prop_scale="0.5"
       scale_y_rel="false"
       spacing="0"
       normal_offset="0"
       tang_offset="0"
       prop_units="false"
       vertical_pattern="false"
       hide_knot="false"
       fuse_tolerance="0" />
    <inkscape:path-effect
       effect="powerstroke"
       id="path-effect16051"
       is_visible="true"
       lpeversion="1"
       offset_points="0,18.8679"
       not_jump="false"
       sort_points="true"
       interpolator_type="CubicBezierJohan"
       interpolator_beta="0.2"
       start_linecap_type="zerowidth"
       linejoin_type="extrp_arc"
       miter_limit="4"
       scale_width="1"
       end_linecap_type="zerowidth" />
    <inkscape:path-effect
       effect="skeletal"
       id="path-effect16045"
       is_visible="true"
       lpeversion="1"
       pattern="M 0,18.867925 C 0,8.4528302 8.4528302,0 18.867925,0 c 10.415094,0 18.867924,8.4528302 18.867924,18.867925 0,10.415094 -8.45283,18.867924 -18.867924,18.867924 C 8.4528302,37.735849 0,29.283019 0,18.867925 Z"
       copytype="single_stretched"
       prop_scale="1"
       scale_y_rel="false"
       spacing="0"
       normal_offset="0"
       tang_offset="0"
       prop_units="false"
       vertical_pattern="false"
       hide_knot="false"
       fuse_tolerance="0" />
    <inkscape:path-effect
       effect="skeletal"
       id="path-effect16041"
       is_visible="true"
       lpeversion="1"
       pattern="M 0,18.867925 C 0,8.4528302 8.4528302,0 18.867925,0 c 10.415094,0 18.867924,8.4528302 18.867924,18.867925 0,10.415094 -8.45283,18.867924 -18.867924,18.867924 C 8.4528302,37.735849 0,29.283019 0,18.867925 Z"
       copytype="single_stretched"
       prop_scale="1"
       scale_y_rel="false"
       spacing="0"
       normal_offset="0"
       tang_offset="0"
       prop_units="false"
       vertical_pattern="false"
       hide_knot="false"
       fuse_tolerance="0" />
    <inkscape:path-effect
       effect="skeletal"
       id="path-effect14246"
       is_visible="true"
       lpeversion="1"
       pattern="M 0,18.867925 C 0,8.4528302 8.4528302,0 18.867925,0 c 10.415094,0 18.867924,8.4528302 18.867924,18.867925 0,10.415094 -8.45283,18.867924 -18.867924,18.867924 C 8.4528302,37.735849 0,29.283019 0,18.867925 Z"
       copytype="single_stretched"
       prop_scale="1"
       scale_y_rel="false"
       spacing="0"
       normal_offset="0"
       tang_offset="0"
       prop_units="false"
       vertical_pattern="false"
       hide_knot="false"
       fuse_tolerance="0" />
    <inkscape:path-effect
       effect="skeletal"
       id="path-effect14242"
       is_visible="true"
       lpeversion="1"
       pattern="M 0,18.867925 C 0,8.4528302 8.4528302,0 18.867925,0 c 10.415094,0 18.867924,8.4528302 18.867924,18.867925 0,10.415094 -8.45283,18.867924 -18.867924,18.867924 C 8.4528302,37.735849 0,29.283019 0,18.867925 Z"
       copytype="single_stretched"
       prop_scale="1"
       scale_y_rel="false"
       spacing="0"
       normal_offset="0"
       tang_offset="0"
       prop_units="false"
       vertical_pattern="false"
       hide_knot="false"
       fuse_tolerance="0" />
    <inkscape:path-effect
       effect="skeletal"
       id="path-effect14238"
       is_visible="true"
       lpeversion="1"
       pattern="M 0,18.867925 C 0,8.4528302 8.4528302,0 18.867925,0 c 10.415094,0 18.867924,8.4528302 18.867924,18.867925 0,10.415094 -8.45283,18.867924 -18.867924,18.867924 C 8.4528302,37.735849 0,29.283019 0,18.867925 Z"
       copytype="single_stretched"
       prop_scale="1"
       scale_y_rel="false"
       spacing="0"
       normal_offset="0"
       tang_offset="0"
       prop_units="false"
       vertical_pattern="false"
       hide_knot="false"
       fuse_tolerance="0" />
    <inkscape:path-effect
       effect="skeletal"
       id="path-effect14234"
       is_visible="true"
       lpeversion="1"
       pattern="M 0,18.867925 C 0,8.4528302 8.4528302,0 18.867925,0 c 10.415094,0 18.867924,8.4528302 18.867924,18.867925 0,10.415094 -8.45283,18.867924 -18.867924,18.867924 C 8.4528302,37.735849 0,29.283019 0,18.867925 Z"
       copytype="single_stretched"
       prop_scale="1"
       scale_y_rel="false"
       spacing="0"
       normal_offset="0"
       tang_offset="0"
       prop_units="false"
       vertical_pattern="false"
       hide_knot="false"
       fuse_tolerance="0" />
    <inkscape:path-effect
       effect="skeletal"
       id="path-effect13966"
       is_visible="true"
       lpeversion="1"
       pattern="M 0,18.867925 C 0,8.4528302 8.4528302,0 18.867925,0 c 10.415094,0 18.867924,8.4528302 18.867924,18.867925 0,10.415094 -8.45283,18.867924 -18.867924,18.867924 C 8.4528302,37.735849 0,29.283019 0,18.867925 Z"
       copytype="single_stretched"
       prop_scale="1"
       scale_y_rel="false"
       spacing="0"
       normal_offset="0"
       tang_offset="0"
       prop_units="false"
       vertical_pattern="false"
       hide_knot="false"
       fuse_tolerance="0" />
    <inkscape:path-effect
       effect="skeletal"
       id="path-effect13962"
       is_visible="true"
       lpeversion="1"
       pattern="M 0,18.867925 C 0,8.4528302 8.4528302,0 18.867925,0 c 10.415094,0 18.867924,8.4528302 18.867924,18.867925 0,10.415094 -8.45283,18.867924 -18.867924,18.867924 C 8.4528302,37.735849 0,29.283019 0,18.867925 Z"
       copytype="single_stretched"
       prop_scale="1"
       scale_y_rel="false"
       spacing="0"
       normal_offset="0"
       tang_offset="0"
       prop_units="false"
       vertical_pattern="false"
       hide_knot="false"
       fuse_tolerance="0" />
    <inkscape:path-effect
       effect="skeletal"
       id="path-effect13958"
       is_visible="true"
       lpeversion="1"
       pattern="M 0,18.867925 C 0,8.4528302 8.4528302,0 18.867925,0 c 10.415094,0 18.867924,8.4528302 18.867924,18.867925 0,10.415094 -8.45283,18.867924 -18.867924,18.867924 C 8.4528302,37.735849 0,29.283019 0,18.867925 Z"
       copytype="single_stretched"
       prop_scale="1"
       scale_y_rel="false"
       spacing="0"
       normal_offset="0"
       tang_offset="0"
       prop_units="false"
       vertical_pattern="false"
       hide_knot="false"
       fuse_tolerance="0" />
  </defs>
  <sodipodi:namedview
     id="namedview2906"
     pagecolor="#ffffff"
     bordercolor="#ff0000"
     borderopacity="1"
     inkscape:pageshadow="0"
     inkscape:pageopacity="0"
     inkscape:pagecheckerboard="0"
     showgrid="false"
     inkscape:zoom="0.25"
     inkscape:cx="1082"
     inkscape:cy="2918"
     inkscape:window-width="1890"
     inkscape:window-height="1018"
     inkscape:window-x="12"
     inkscape:window-y="44"
     inkscape:window-maximized="1"
     inkscape:current-layer="g2910"
     showborder="true"
     inkscape:showpageshadow="false"
     units="mm"
     fit-margin-top="0.2"
     fit-margin-bottom="1.7"
     fit-margin-right="0.9"
     fit-margin-left="500"
     scale-x="1"
     showguides="true" />
  <g
     inkscape:groupmode="layer"
     inkscape:label="Image"
     id="g2910"
     style="display:inline">
    <path
       style="fill:#52b0ef;fill-opacity:1;stroke:none;stroke-width:2.033;stroke-miterlimit:4;stroke-dasharray:none"
       d="m 2287.8087,2471.2178 c 0,-478.2222 0.4461,-718.6667 1.3333,-718.6667 0.8872,0 1.3333,240.4445 1.3333,718.6667 0,478.2222 -0.4461,718.6667 -1.3333,718.6667 -0.8872,0 -1.3333,-240.4445 -1.3333,-718.6667 z M 867.80875,2618.819 c 0,-2.8265 6.2247,-14.579 49.5762,-93.6012 19.9234,-36.3169 44.4707,-82.9335 48.6648,-92.4171 6.5674,-14.8501 10.2743,-17.4865 17.5532,-12.4839 1.9465,1.3378 5.9391,3.8442 8.8724,5.5697 4.9737,2.9257 4.7264,2.5006 -3.6666,-6.3027 -5.0857,-5.3344 -9,-10.6232 -9,-12.1604 0,-1.4962 4.5577,-13.1045 10.1283,-25.7963 5.5706,-12.6918 12.50135,-29.0153 15.40175,-36.2745 7.2296,-18.0946 8.7665,-20.8015 11.8104,-20.8015 2.9478,0 5.261,4.0185 12.7325,22.1189 14.915,36.1329 49.0724,105.8156 81.9662,167.2144 9.6254,17.9667 17.8328,34.6167 18.2386,37 0.6791,3.9888 0.4554,4.3334 -2.8129,4.3334 -1.9528,0 -5.7505,-0.9192 -8.4393,-2.0426 -2.6887,-1.1235 -4.6195,-1.7982 -4.2904,-1.4994 0.3289,0.2987 6.6792,5.3676 14.1116,11.264 16.0228,12.7116 17.535,14.6099 28.9926,36.3944 9.2302,17.5491 10.6366,22.5502 6.3416,22.5502 -1.367,0 -14.717,-6.2563 -29.6666,-13.9029 -28.8971,-14.7807 -50.9222,-23.9201 -70.7157,-29.344 -6.6846,-1.8317 -12.421,-3.5975 -12.7475,-3.9241 -0.3265,-0.3265 -0.7311,-8.8966 -0.899,-19.0446 -0.2659,-16.0654 -0.7416,-19.5966 -3.6792,-27.3111 -4.9568,-13.0172 -11.7914,-21.6175 -20.6071,-25.9306 -6.7117,-3.2837 -7.7978,-3.4521 -12.7319,-1.9738 -6.8051,2.0389 -15.62615,10.0988 -20.11575,18.3799 -5.8762,10.8386 -8.1129,21.9439 -7.9432,39.4373 0.1757,18.1101 1.698,16.1573 -16.4084,21.048 -18.036,4.8718 -39.9673,14.0414 -68.4395,28.6149 -14.9907,7.6731 -28.3744,13.951 -29.7415,13.951 -1.7045,0 -2.4856,-0.9633 -2.4856,-3.0654 z m 30.8836,-14.197 c 26.9887,-13.8826 49.1437,-23.1155 67.1164,-27.9701 18.1146,-4.893 16.9482,-3.6792 15.9038,-16.5498 -1.0424,-12.8476 1.6811,-29.3513 6.637,-40.2177 3.7694,-8.265 13.41615,-18.6158 19.85815,-21.3074 15.4427,-6.4524 32.4678,4.7573 40.3952,26.5969 4.0049,11.0333 6.1014,27.3923 4.742,37.0021 -0.5932,4.1937 -0.6882,8.2565 -0.2112,9.0284 0.4771,0.7718 6.3634,2.9094 13.0808,4.7501 19.8086,5.428 41.8946,14.5611 69.4471,28.7181 14.2191,7.3061 26.1413,12.9954 26.4937,12.6429 0.3526,-0.3524 -3.6974,-8.7441 -8.9998,-18.6482 -7.7844,-14.54 -11.18,-19.4299 -17.635,-25.3951 -4.3968,-4.0633 -8.2298,-7.3878 -8.518,-7.3878 -1.2378,0 -16.5272,-12.5325 -16.5272,-13.5472 0,-0.6157 -0.9,-1.1194 -2,-1.1194 -1.1,0 -2,-0.9354 -2,-2.0787 0,-1.2856 -0.6358,-1.7128 -1.6666,-1.1196 -0.9167,0.5275 -1.1994,0.4456 -0.6282,-0.1821 1.9394,-2.131 5.3508,-1.7835 13.8318,1.4087 6.1521,2.3157 8.463,2.7159 8.463,1.4658 0,-0.9459 -7.8285,-16.369 -17.3966,-34.2736 -34.666,-64.8691 -65.1633,-127.3869 -84.6575,-173.5437 -3.6369,-8.611 -6.9125,-15.6607 -7.2792,-15.6658 -0.3667,0 -3.02,5.8402 -5.8963,12.9898 -2.8763,7.1495 -10.2263,24.5119 -16.33325,38.5829 -6.1071,14.0711 -11.1037,26.7326 -11.1037,28.1367 0,1.451 5.6115,8.1685 13,15.5623 7.14995,7.1551 12.24995,12.6082 11.33325,12.1179 -0.9167,-0.4902 -1.6667,-0.2635 -1.6667,0.5039 0,1.8245 -12.35335,-3.6762 -21.73815,-9.6795 -5.5224,-3.5327 -7.7323,-4.3308 -8.7107,-3.146 -0.721,0.8732 -7.5771,13.8876 -15.2359,28.921 -14.9899,29.4235 -27.1196,51.9952 -64.8275,120.6347 -22.4226,40.8159 -25.0973,46.0319 -23.604,46.0319 0.3026,0 12.1526,-5.968 26.3333,-13.2624 z m -13.5492,-1.593 c 0,-3.1827 7.3634,-17.5458 32.574,-63.5549 13.5385,-24.7077 32.2976,-59.6163 41.6868,-77.5748 9.727,-18.6045 17.9607,-32.8216 19.1383,-33.0465 1.1368,-0.217 7.4368,2.5846 14,6.2258 15.27105,8.4722 18.61815,9.3378 22.01375,5.6931 1.4223,-1.5267 2.5671,-3.5508 2.5439,-4.4982 -0.05,-2.0318 -5.9822,-9.0557 -7.6486,-9.0557 -0.6336,0 -3.004,-1.95 -5.2676,-4.3334 -2.2636,-2.3833 -5.97395,-5.7289 -8.24535,-7.4347 -2.2713,-1.7058 -4.1296,-3.9558 -4.1296,-5 0,-1.0442 -0.679,-1.8986 -1.5089,-1.8986 -3.1801,0 0.2537,-10.7633 12.22945,-38.3333 9.1284,-21.0147 12.8953,-28.3334 14.5832,-28.3334 2.4005,0 3.6908,2.5286 21.3995,41.9365 10.2003,22.6993 40.6749,83.7582 62.5857,125.3969 7.3319,13.9333 13.3414,26.7131 13.3542,28.3995 0.023,2.9596 -0.2538,3.0349 -7.9454,2.1647 -7.7706,-0.8792 -8.0028,-0.8124 -9.3333,2.6872 -0.7505,1.9739 -1.3645,4.405 -1.3645,5.4024 0,0.9975 5.85,5.67 13,10.3835 7.15,4.7135 14.6809,10.1583 16.7353,12.0996 2.0545,1.9414 4.2907,3.5297 4.9693,3.5297 0.6787,0 2.2167,1.5 3.418,3.3334 1.2012,1.8333 2.8835,3.3333 3.7383,3.3333 1.7291,0 11.4724,18.8257 11.4724,22.1666 0,3.0164 -3.8943,1.8009 -22.4105,-6.9951 -19.665,-9.3415 -44.4008,-19.1056 -58.4032,-23.0536 l -10.8138,-3.049 -0.7042,-16.8678 c -1.5327,-36.7158 -16.4229,-58.8678 -39.5699,-58.8678 -12.8389,0 -20.92005,5.1028 -28.86015,18.2235 -6.626,10.949 -8.8679,19.9413 -9.7465,39.0922 l -0.825,17.9822 -12.0768,3.5442 c -15.5358,4.5594 -38.4586,13.6182 -58.1793,22.9918 -17.8971,8.5068 -22.4111,9.9794 -22.4095,7.3107 z m 47.4013,-22.0161 c 9.5713,-3.9065 23.0713,-8.7664 30,-10.7997 l 12.5976,-3.697 0.807,-17.9825 c 0.8116,-18.0867 2.384,-25.1723 8.0726,-36.376 3.6059,-7.1018 11.3667,-15.3379 17.30965,-18.3698 7.1569,-3.6512 24.5562,-3.6045 31.7888,0.085 16.5289,8.4324 26.6131,31.183 26.6654,60.1592 l 0.023,12.8148 11,3.0807 c 12.6099,3.5316 42.3111,15.3276 61.2892,24.3414 l 12.956,6.1535 -4.096,-8.2692 c -4.5358,-9.1571 -14.6221,-18.1338 -36.1208,-32.1474 -6.2704,-4.0872 -11.7668,-8.3857 -12.2145,-9.5522 -1.4037,-3.6584 -0.8944,-7.8613 1.3393,-11.0503 1.9046,-2.7191 3.0526,-3.0228 9.9423,-2.63 l 7.7891,0.444 -13.2944,-25.3333 c -22.339,-42.5682 -52.4742,-102.968 -62.564,-125.3969 -16.4927,-36.6622 -17.7318,-39.2698 -18.6597,-39.2698 -0.498,0 -6.4356,12.8809 -13.1946,28.6242 -14.35765,33.4423 -14.71305,29.2053 3.7909,45.1975 11.2691,9.7394 12.0372,10.7303 12.0372,15.5289 0,11.5654 -8.6608,12.4088 -27.20445,2.6494 -6.9669,-3.6666 -12.9339,-6.6666 -13.2599,-6.6666 -0.3259,0 -8.9845,16.05 -19.2411,35.6666 -10.2567,19.6167 -28.5388,53.6667 -40.6268,75.6667 -12.0881,22 -23.8567,43.7296 -26.1526,48.2879 l -4.1743,8.288 12.9962,-6.1723 c 7.148,-3.3948 20.8274,-9.3686 30.3987,-13.2751 z"
       id="path6798" />
    <path
       style="fill:#52b0ef;fill-opacity:1;stroke:#52b0ef;stroke-width:0.718774;stroke-miterlimit:4;stroke-dasharray:none;stroke-opacity:1"
       d="m 867.80875,2618.819 c -2.4436,-1.1049 -11.0047,-5.3271 -19.0246,-9.3828 -33.3168,-16.8481 -46.023,-22.0587 -75.8476,-31.1035 -2.8297,-0.8582 -5.9845,-1.939 -7.0108,-2.4018 l -1.866,-0.8415 -0.026,-2.2806 c -0.014,-1.2543 0.2038,-4.4065 0.485,-7.005 0.8307,-7.6733 0.044,-17.7396 -2.158,-27.6027 -5.199,-23.2911 -19.7505,-38.5827 -35.7551,-37.5737 -6.5438,0.4126 -11.1926,2.9165 -17.5697,9.4634 -8.9496,9.1879 -12.7969,17.5545 -15.616,33.9592 -0.8445,4.9148 -0.8771,5.6655 -0.7527,17.3492 0.1489,13.9894 0.2326,13.5638 -2.961,15.057 -0.999,0.4671 -5.7815,1.9487 -10.6277,3.2923 -23.6673,6.562 -39.7866,13.4346 -82.1561,35.0277 -7.4432,3.7934 -13.5921,6.7309 -13.6642,6.5277 -0.3658,-1.0311 3.3196,-7.9823 31.8566,-60.0858 31.4931,-57.5009 42.4527,-77.9374 55.9986,-104.421 7.1261,-13.9322 14.8262,-28.5944 15.6459,-29.7926 1.208,-1.7656 2.9816,-1.2232 9.5911,2.9334 6.9485,4.3698 16.5483,8.9717 19.7069,9.4469 0.9722,0.1463 1.3471,0.05 1.5985,-0.412 0.2125,-0.3901 0.5697,-0.5296 1.0118,-0.3949 0.3758,0.1145 0.6816,0.065 0.6796,-0.1103 0,-0.3782 -3.6734,-4.3096 -10.5233,-11.2757 -5.9053,-6.0056 -10.8192,-11.5251 -12.6343,-14.1915 -1.2715,-1.8679 -1.2975,-1.9685 -0.886,-3.4259 0.8548,-3.027 5.7145,-14.9651 13.7433,-33.7611 4.5242,-10.5917 10.0997,-23.7805 12.3899,-29.3086 2.2903,-5.5281 4.7331,-11.2047 5.4286,-12.6146 l 1.2644,-2.5636 1.7124,3.516 c 0.9418,1.9338 3.3792,7.395 5.4165,12.1359 21.5212,50.0828 47.3178,103.0914 81.9604,168.4177 10.6101,20.0076 19.6627,37.7168 19.855,38.8411 0.1992,1.1654 -1.29,1.0378 -5.7272,-0.4909 -8.087,-2.7861 -10.3555,-3.3896 -12.642,-3.3633 -1.8242,0.021 -2.3778,0.1757 -3.1894,0.8907 -1.0844,0.9553 -0.9307,1.5639 0.2332,0.9236 0.9407,-0.5175 1.2914,-0.2974 1.5623,0.9805 0.2788,1.3149 1.1514,2.1581 2.2206,2.1458 0.4645,-0.01 1.0528,0.2556 1.3073,0.5798 1.9114,2.4354 11.4764,10.4893 15.7588,13.2691 2.8123,1.8255 9.2181,7.4509 13.0282,11.4411 4.8864,5.1172 10.1537,13.7031 18.2608,29.7657 4.5066,8.929 5.1833,10.4481 4.6542,10.4483 -0.159,0 -2.2883,-0.9039 -4.7319,-2.0087 z m -7.9052,-11.1033 c 0.9507,-1.1728 -0.7409,-5.8651 -5.1526,-14.293 -2.9673,-5.6685 -4.7267,-8.2098 -6.3938,-9.2356 -0.7805,-0.4801 -1.8737,-1.4526 -2.4295,-2.161 -2.0803,-2.6517 -3.491,-4.0378 -4.5538,-4.4746 -0.6023,-0.2476 -1.8982,-1.1056 -2.8798,-1.9068 -5.4822,-4.4748 -9.0001,-7.0814 -16.2265,-12.0228 -9.0728,-6.204 -14.5154,-10.3824 -15.0745,-11.5728 -0.4908,-1.0452 1.1905,-6.6448 2.3522,-7.8336 0.9642,-0.9867 1.5022,-1.0054 8.659,-0.3011 6.6891,0.6582 7.3775,0.4966 7.3518,-1.7258 -0.034,-2.9379 -2.0809,-7.1923 -23.6931,-49.2442 -29.6032,-57.6 -42.3499,-83.5499 -57.5954,-117.2533 -8.1108,-17.9308 -12.6596,-27.2573 -14.1044,-28.919 -1.8869,-2.1699 -3.1793,-1.3146 -6.1172,4.0484 -5.071,9.2568 -19.7597,43.8614 -22.6987,53.4752 -1.8014,5.8926 -1.8032,7.8192 -0.01,8.422 0.7886,0.2647 1.0618,0.6288 1.2716,1.6944 0.218,1.1077 0.829,1.8706 3.3238,4.1505 1.6811,1.5364 5.3457,4.9373 8.1434,7.5576 2.7977,2.6203 5.4673,4.8797 5.9324,5.0209 1.4814,0.4497 3.1294,1.9217 5.3001,4.7344 2.3146,2.9991 2.7034,3.8156 2.4072,5.0562 -0.2887,1.2093 -2.8265,4.3587 -4.0264,4.9969 -2.7729,1.4747 -6.8519,0.1019 -18.2961,-6.1573 -6.7136,-3.672 -13.3483,-6.75 -14.9804,-6.9497 l -1.4192,-0.1737 -2.2666,3.5117 c -4.0203,6.2291 -7.7084,12.9082 -21.5866,39.0924 -11.3879,21.4857 -21.2139,39.7295 -37.5585,69.7345 -26.118,47.9466 -31.0587,57.6105 -31.3863,61.3908 -0.1241,1.4326 -0.05,1.6521 0.6117,1.8171 1.9098,0.4759 6.954,-1.4746 22.2285,-8.5955 22.9775,-10.712 41.4228,-17.8883 61.0557,-23.7542 l 8.809,-2.632 0.3321,-6.8688 c 1.1381,-23.5379 1.653,-28.22 3.9876,-36.2579 2.1224,-7.3077 7.4915,-16.9369 12.5105,-22.4371 3.9989,-4.3822 8.0053,-6.9794 13.1436,-8.5202 3.7465,-1.1235 13.0695,-1.3129 16.9003,-0.3434 2.9642,0.7502 7.6342,2.7989 10.0011,4.3874 8.2141,5.513 14.745,15.946 18.3255,29.2748 2.2892,8.5216 3.0049,14.7133 4.0368,34.9236 l 0.3229,6.3238 5.8531,1.6503 c 18.829,5.309 37.5684,12.56 63.7516,24.6683 17.5436,8.1128 20.6223,9.1988 21.8355,7.7022 z"
       id="path2386" />
  </g>
  <g
     inkscape:groupmode="layer"
     id="layer2"
     inkscape:label="canvas"
     sodipodi:insensitive="true">
    <g
       id="g9418"
       style="display:inline">
      <rect
         style="fill:none;fill-opacity:1;stroke:#ff0000;stroke-width:2.033;stroke-miterlimit:4;stroke-dasharray:none;stroke-opacity:1"
         id="rect9114"
         width="2559.262"
         height="1440.9525"
         x="0.32229549"
         y="-0.92487913" />
    </g>
  </g>
  <g
     inkscape:groupmode="layer"
     id="layer1"
     inkscape:label="Image 1"
     style="display:inline">
    <rect
       style="fill:#52b0ef;fill-opacity:1;stroke:#000000;stroke-width:2.033;stroke-miterlimit:4;stroke-dasharray:none;stroke-opacity:1"
       id="rect9116"
       width="17.508955"
       height="5.9681315"
       x="2718.0417"
       y="1393.7112" />
    <path
       style="fill:#aa0000;fill-opacity:1;stroke:#00ffff;stroke-width:6.35313;stroke-miterlimit:4;stroke-dasharray:none;stroke-opacity:1"
       d=""
       id="path10473" />
    <path
       style="display:inline;fill:#000000;fill-opacity:1;stroke-width:2.23955"
       d="M -861.50146,725.09972 V -484.24861 H 1282.8523 3427.2061 V 725.09972 1934.4482 H 1282.8523 -861.50146 Z M 1091.7537,952.49477 c 47.8234,-24.4786 84.6601,-39.8802 114.9545,-48.0631 30.1795,-8.1519 27.617,-4.8526 27.4181,-35.3021 -0.2519,-38.4905 6.8343,-61.90522 24.7479,-81.77384 8.8757,-9.84428 22.6133,-17.33596 31.9368,-17.41614 10.6086,-0.0913 28.3331,10.76841 37.1263,22.74718 14.8718,20.25939 19.4448,36.5425 20.2816,72.2131 0.4022,17.1504 1.0938,31.5452 1.5367,31.9883 0.4435,0.4431 9.9924,3.323 21.2202,6.3996 33.2865,9.1213 70.2267,24.4678 119.5811,49.6789 25.5518,13.0525 47.2194,22.9653 48.1497,22.0284 1.8865,-1.8991 -23.9321,-53.0385 -33.6378,-66.6276 -3.4185,-4.7865 -18.8945,-18.7539 -34.3907,-31.0388 -15.4964,-12.2848 -26.5938,-22.336 -24.6608,-22.336 1.933,0 8.6279,2.0156 14.8778,4.4791 15.14,5.9676 18.7455,5.8475 17.1345,-0.5709 -0.697,-2.7774 -14.4602,-29.7358 -30.5843,-59.90749 -57.1533,-106.9457 -110.2153,-215.4565 -139.735,-285.75618 -5.7418,-13.67381 -11.9202,-26.77509 -13.7295,-29.11395 -3.1845,-4.11591 -3.3923,-4.12063 -6.4729,-0.14658 -1.7509,2.25821 -6.4535,12.33611 -10.4505,22.39534 -3.9971,10.05921 -16.1698,38.77323 -27.0506,63.80903 -10.8809,25.03577 -19.7838,46.58703 -19.7838,47.89173 0,1.30472 9.3221,11.91054 20.7162,23.56854 19.6386,20.09447 20.2499,21.00434 11.7574,17.50351 -4.9271,-2.03101 -15.4822,-7.77869 -23.4558,-12.77257 -16.5822,-10.38528 -18.3828,-10.04336 -26.1242,4.95965 -45.869,88.89688 -65.4672,126.14412 -87.3575,166.02737 -87.7529,159.8824 -87.0755,158.5685 -81.7213,158.5685 1.0645,0 22.5362,-10.5449 47.7159,-23.4329 z m -18.317,-11.2295 c 3.5782,-9.4113 13.178,-27.5572 50.9738,-96.3505 20.3018,-36.9523 51.0116,-94.15185 68.2438,-127.11014 17.2322,-32.95828 32.1148,-60.40826 33.0724,-60.99994 0.9573,-0.59165 10.952,4.05011 22.2104,10.31512 30.3866,16.9095 44.993,16.84411 44.993,-0.20134 0,-5.22806 -3.6968,-9.55723 -20.8918,-24.46484 -24.0827,-20.87936 -27.7094,-26.11282 -24.4678,-35.30896 5.5101,-15.63171 41.6357,-97.04019 43.0625,-97.04019 1.6848,0 7.8109,12.79931 33.712,70.43851 17.133,38.12695 68.3198,140.68452 105.1223,210.62297 12.3149,23.40312 22.409,43.71531 22.4305,45.13821 0.027,1.7956 -3.9202,2.228 -12.9029,1.4135 -10.2079,-0.9256 -13.5779,-0.4076 -15.9508,2.4519 -1.6549,1.994 -2.1298,3.6409 -1.0552,3.6597 1.0748,0.018 0.5578,0.9185 -1.1484,1.9992 -7.028,4.4507 -0.6633,13.0963 19.148,26.0098 10.663,6.9506 27.1787,18.8531 36.7018,26.45 14.7223,11.7445 18.5409,16.2827 25.5057,30.3111 4.5056,9.0742 7.8314,16.8585 7.3917,17.2985 -0.44,0.4399 -12.8356,-4.833 -27.5455,-11.7175 -36.1674,-16.9267 -81.017,-34.7106 -103.4499,-41.0203 l -18.4763,-5.1967 -0.038,-21.5243 c -0.086,-48.6699 -17.0256,-86.88299 -44.7886,-101.04653 -11.9527,-6.09775 -37.099,-6.17143 -48.9149,-0.14335 -9.9823,5.09253 -23.0176,18.92631 -29.0745,30.85487 -9.5546,18.81837 -12.1957,30.71961 -13.5591,61.09891 l -1.355,30.2044 -20.1562,5.9291 c -27.8978,8.2065 -52.8675,17.9595 -89.5813,34.9901 -43.0074,19.95 -41.7142,19.5233 -39.2111,12.9387 z"
       id="path3494" />
    <path
       style="fill:#52b0ef;stroke:#52b0ef;stroke-width:1.6122"
       d="m 1042.6419,974.46633 c 0.01,-3.69203 8.7232,-20.35291 52.1229,-99.61311 54.8874,-100.24016 60.7567,-111.25668 111.3583,-209.0196 11.7119,-22.62749 13.9624,-25.9133 17.744,-25.90786 3.3447,0.005 5.5964,1.04881 17.3274,8.03389 9.5797,5.70412 21.6435,11.88021 25.1679,12.88478 2.7139,0.77355 1.8961,-1.51791 -2.0975,-5.87682 -2.0301,-2.21587 -7.9938,-8.48983 -13.2527,-13.94212 -8.4019,-8.71099 -16.9055,-18.10687 -19.6557,-21.71825 -1.1698,-1.53612 0.4553,-5.6597 22.1809,-56.28166 9.2266,-21.49866 18.8781,-44.23596 21.4479,-50.52732 8.7708,-21.47321 13.5083,-30.81851 15.6407,-30.85341 2.3601,-0.0386 6.7718,8.64489 19.8484,39.0675 30.6513,71.31042 77.1169,166.31974 131.0312,267.92227 23.0815,43.49768 36.1747,69.60571 36.1711,72.12588 0,1.54222 -0.4083,2.30202 -1.3972,2.61432 -0.8466,0.26736 -6.7645,-1.3885 -15.0701,-4.21669 -13.5462,-4.61271 -16.0498,-5.24266 -16.0516,-4.03888 0,1.11242 9.3699,9.52361 23.3667,20.97234 23.1249,18.91502 33.0988,28.10791 37.4781,34.54336 8.0404,11.81549 30.1548,54.90649 32.0244,62.40124 l 0.4611,1.84836 -3.7924,-1.49173 c -7.2604,-2.85588 -15.2712,-6.64838 -43.0097,-20.36188 -61.7844,-30.5453 -85.0617,-40.10033 -125.6669,-51.58464 -6.3462,-1.7949 -12.5936,-3.70607 -13.8831,-4.24706 l -2.3447,-0.98361 -0.4139,-9.43763 c -0.2276,-5.19071 -0.7251,-16.91575 -1.1054,-26.05566 -1.1118,-26.7189 -3.4521,-38.43822 -10.5231,-52.69466 -8.0832,-16.29724 -18.598,-27.42402 -32.1281,-33.99772 -11.4016,-5.53956 -17.8218,-5.68829 -28.4373,-0.65873 -19.1588,9.07728 -34.2687,30.1238 -39.7638,55.38666 -2.5105,11.54172 -3.0802,18.05931 -3.5945,41.11799 -0.4745,21.27519 -0.5743,22.4988 -1.9896,24.38797 -2.2791,3.04203 -6.5386,4.81064 -20.7991,8.63609 -36.0751,9.67734 -59.6696,19.5207 -126.1513,52.62886 -22.1049,11.00836 -40.6529,20.01453 -41.2178,20.01371 -0.5649,-8.1e-4 -1.0263,-0.48509 -1.0255,-1.07618 z m 34.7574,-29.89811 c 2.1037,-0.72535 14.3324,-6.14991 27.1749,-12.05459 49.4008,-22.71329 70.4842,-30.86073 108.9551,-42.10443 l 9.1963,-2.68774 0.8659,-19.77584 c 1.6942,-38.6907 4.2388,-52.1984 13.1517,-69.81268 6.6265,-13.09576 19.0785,-26.65027 29.5192,-32.13283 7.552,-3.96568 21.1285,-5.81303 32.4364,-4.41359 13.396,1.65789 21.0368,5.42704 31.0502,15.31692 14.7338,14.55206 23.658,34.63527 28.14,63.32662 0.7874,5.04028 1.2676,13.95137 1.4946,27.73513 0.2961,17.97231 0.4672,20.34789 1.4875,20.64828 0.6341,0.18668 5.2878,1.48729 10.3416,2.89022 28.1325,7.80958 62.6915,21.22614 108.9736,42.30599 20.6699,9.4144 29.1759,12.95075 29.7569,12.37137 0.9282,-0.92554 -9.3827,-22.61902 -13.9757,-29.40405 -6.4374,-9.50966 -23.0093,-23.08446 -53.4005,-43.74296 -14.297,-9.71837 -19.386,-13.9483 -22.2701,-18.51067 -2.5416,-4.02033 -2.5126,-5.0538 0.2158,-7.71367 1.2719,-1.23997 2.0497,-2.59567 1.8257,-3.18209 -0.5782,-1.51314 1.4792,-4.01955 4.2438,-5.16999 1.9246,-0.80093 4.4597,-0.90791 12.1873,-0.51427 10.5903,0.53947 13.4838,0.20031 13.4864,-1.5808 0,-1.40929 -12.8771,-27.23472 -27.9976,-56.14112 -41.504,-79.34501 -82.7528,-162.78085 -107.222,-216.88275 -19.4851,-43.0818 -24.1534,-52.6082 -26.0999,-53.26014 -0.555,-0.18588 -2.6999,3.48033 -5.756,9.83847 -10.2605,21.34695 -35.0798,78.39675 -38.0884,87.55041 -3.0145,9.17167 0.722,14.29184 27.9704,38.32872 15.5388,13.70733 18.1439,17.23509 17.3113,23.44245 -0.9779,7.29158 -4.0829,10.00082 -11.3651,9.91665 -6.4719,-0.0748 -15.2866,-3.45573 -34.8414,-13.36367 -9.599,-4.86353 -18.1537,-9.02993 -19.0106,-9.25866 -1.2484,-0.33326 -1.8924,0.11784 -3.2417,2.2707 -2.3763,3.79156 -15.6346,28.43526 -32.4259,60.2716 -25.129,47.64444 -45.6285,85.75663 -73.7275,137.07276 -33.512,61.20174 -45.3719,84.13478 -45.3771,87.74399 0,2.3611 0.091,2.37388 5.0149,0.67626 z"
       id="path2580" />
  </g>
</svg>
