<?xml version="1.0" encoding="UTF-8" standalone="no"?>
<!-- Created with Inkscape (http://www.inkscape.org/) -->

<svg
   version="1.1"
   id="svg69"
   width="2560"
   height="1440"
   viewBox="0 0 2560 1440"
   sodipodi:docname="temp.png.svg"
   inkscape:version="1.1.2 (0a00cf5339, 2022-02-04, custom)"
   xmlns:inkscape="http://www.inkscape.org/namespaces/inkscape"
   xmlns:sodipodi="http://sodipodi.sourceforge.net/DTD/sodipodi-0.dtd"
   xmlns="http://www.w3.org/2000/svg"
   xmlns:svg="http://www.w3.org/2000/svg">
  <defs
     id="defs73" />
  <sodipodi:namedview
     id="namedview71"
     pagecolor="#ffffff"
     bordercolor="#999999"
     borderopacity="1"
     inkscape:pageshadow="0"
     inkscape:pageopacity="0"
     inkscape:pagecheckerboard="0"
     showgrid="false"
     inkscape:zoom="0.32"
     inkscape:cx="-2272.7356"
     inkscape:cy="5370.5914"
     inkscape:window-width="1890"
     inkscape:window-height="1018"
     inkscape:window-x="12"
     inkscape:window-y="44"
     inkscape:window-maximized="1"
     inkscape:current-layer="g75" />
  <g
     inkscape:groupmode="layer"
     inkscape:label="Image"
     id="g75"
     style="display:inline">
    <path
       style="fill:#000000;fill-opacity:1;stroke-width:1.33333"
       d="m -2266.8573,724.09889 c 0.7886,-7.598 2.5507,-11.5582 16.2507,-36.522 31.9747,-58.2637 38.2488,-69.6642 44.7607,-81.3334 3.6831,-6.6 14.4705,-27.3 23.972,-45.99997 16.1008,-31.68799 21.4085,-40.04626 25.3815,-39.96907 0.8758,0.0171 3.8975,2.10719 6.715,4.64483 2.8175,2.53762 6.7175,5.85278 8.6667,7.367 l 3.544,2.75312 -4.6667,-2.24379 c -2.5667,-1.23408 -6.2593,-3.36316 -8.2058,-4.73128 -1.9465,-1.36811 -3.8453,-2.48748 -4.2194,-2.48748 -0.3741,0 -8.5187,15.26597 -18.0991,33.92437 -14.9638,29.14277 -26.499,50.59137 -62.7846,116.74227 -22.5382,41.0885 -26.9515,49.5174 -26.2787,50.1902 0.4153,0.4153 7.8424,-3.1377 16.5047,-7.8955 25.7644,-14.1513 62.5664,-30.4331 75.7496,-33.5129 2.2,-0.5139 8.0326,-2.1203 12.9613,-3.5697 l 8.9613,-2.6353 -0.8115,-12.3539 c -2.2268,-33.9 13.3865,-62.2229 34.3009,-62.2229 7.4135,0 13.3709,3.0481 19.9878,10.2266 10.818,11.7361 16.445,30.5156 15.6978,52.3888 l -0.431,12.6154 14.6667,4.1987 c 24.8481,7.1134 51.368,18.5114 81.0397,34.8301 8.6862,4.7771 16.112,8.3664 16.5022,7.9763 0.6972,-0.6972 -13.9046,-28.9455 -19.8438,-38.3897 -1.6673,-2.6513 -8.5814,-9.4147 -15.3648,-15.0297 -6.7833,-5.6151 -12.3333,-10.4894 -12.3333,-10.8317 0,-0.3424 3.15,0.8394 7,2.6262 3.85,1.7868 8.5916,3.5771 10.5369,3.9784 5.9272,1.2228 14.7672,11.3203 23.4134,26.744 9.7777,17.4422 10.4088,19.0224 11.658,29.1939 l 0.9654,7.8606 -5.1202,-0.912 c -2.816,-0.5017 -6.9687,-1.1198 -9.228,-1.3737 -2.2592,-0.2538 -11.1743,-4.3912 -19.8111,-9.1941 -24.9989,-13.902 -57.8869,-27.9794 -78.4066,-33.5613 -10.7084,-2.9129 -11.8786,-5.0931 -10.106,-18.8274 1.5897,-12.3179 -0.019,-20.1354 -7.1059,-34.5194 -3.9634,-8.0449 -20.1276,-26 -23.4067,-26 -0.9252,0 -5.2621,3.361 -9.6374,7.4689 -5.6843,5.3368 -9.6571,10.7642 -13.9177,19.0135 -6.8674,13.2965 -8.5132,22.6743 -6.3223,36.0247 0.8953,5.4557 0.9397,9.3597 0.124,10.884 -1.2418,2.3202 -6.4947,4.5864 -18.6358,8.0398 -16.4908,4.6906 -53.965,21.3892 -74.9483,33.397 -6.5197,3.7309 -13.7735,6.9978 -16.1195,7.2597 -2.3461,0.2619 -6.555,0.8843 -9.3531,1.383 l -5.0876,0.9068 0.8845,-8.522 z m 25.9572,-16.6103 c 0,-0.3501 3.4972,-2.8969 7.7715,-5.6595 4.2744,-2.7627 10.7244,-7.1665 14.3334,-9.7864 7.1566,-5.1952 16.8012,-9.3248 37.2721,-15.9592 7.3093,-2.3688 15.5269,-5.8519 18.2612,-7.7402 4.7919,-3.3091 4.9735,-3.7222 5.0237,-11.4331 0.1662,-25.4904 5.2014,-43.1077 15.1694,-53.0757 8.747,-8.747 10.7971,-9.3099 33.0181,-9.0656 12.1697,0.1338 13.1916,0.3705 19.3213,4.4746 13.1993,8.8376 19.7447,24.2358 21.2514,49.9941 0.9247,15.8096 0.9714,15.9863 5.089,19.2688 2.2856,1.8221 8.6551,4.7045 14.1544,6.4054 5.4995,1.701 15.0252,5.4038 21.1685,8.2286 11.4803,5.2788 39.4856,21.5902 40.845,23.7897 1.0966,1.7744 -7.2686,-1.459 -23.3456,-9.0239 -17.8792,-8.4127 -33.522,-14.4754 -48.6667,-18.8618 l -12,-3.4756 -0.8562,-14.7357 c -1.3082,-22.514 -6.1222,-37.5904 -16.0137,-50.1515 -5.4693,-6.9454 -15.7842,-11.7788 -25.0585,-11.7421 -23.923,0.094 -39.8708,25.701 -40.0251,64.2657 l -0.046,11.6282 -9.6666,2.8025 c -16.0769,4.6607 -35.4828,12.0431 -51.6667,19.6549 -15.9941,7.5226 -25.3333,11.2821 -25.3333,10.1978 z m -2.6666,-2.7028 c 0,-1.5999 10.8758,-22.2102 32.6511,-61.8756 12.2788,-22.3667 29.86,-55.2757 39.0695,-73.1311 9.2095,-17.85544 17.5356,-32.768 18.5025,-33.13903 0.9669,-0.37102 8.5122,2.66403 16.7674,6.74456 18.9593,9.37155 20.1746,9.69382 23.6079,6.26043 1.5042,-1.50417 2.7349,-3.45665 2.7349,-4.33885 0,-0.88219 -7.2,-8.45556 -16,-16.82971 -8.8,-8.37415 -16,-15.84529 -16,-16.60255 0,-2.44346 24.2878,-58.20941 25.9544,-59.59257 1.1279,-0.93608 0.8643,2.54439 -0.8789,11.60283 -2.798,14.5394 -12.2174,37.18637 -18.1007,43.51884 -2.0028,2.15577 -2.9341,3.51776 -2.0697,3.02664 1.4207,-0.8071 17.3259,11.85989 25.6044,20.39146 6.475,6.67291 8.6383,16.90526 4.7482,22.45903 -1.8195,2.59773 -3.2589,2.96173 -11.6666,2.95032 -11.5973,-0.0157 -20.5977,-3.69835 -28.0467,-11.47556 -2.7278,-2.84795 -4.5845,-4.14771 -4.1261,-2.88835 0.9165,2.51772 -19.5245,43.13931 -46.4846,92.37691 -22.6262,41.3225 -25.3446,45.9096 -31.211,52.6667 -2.8651,3.3 -7.2264,8.85 -9.692,12.3333 -4.349,6.1444 -5.364,7.1932 -5.364,5.5423 z m 253.1886,-5.8712 c -3.7808,-5.6264 -8.0186,-8.9455 -25.8553,-20.2498 -28.4712,-18.044 -29.4196,-18.9401 -30.6823,-28.9894 -0.5318,-4.2341 -0.099,-5.9843 2.0018,-8.0846 3.3318,-3.332 11.7329,-3.5718 18.1672,-0.5185 6.278,2.9791 7.382,5.1538 2.054,4.046 -2.314,-0.4811 -5.9091,-1.2301 -7.9891,-1.6645 -4.5144,-0.9426 -8.2183,2.0997 -8.2183,6.7503 0,2.4716 3.1115,5.1932 15.2819,13.3668 23.5829,15.8382 32.7341,23.9963 37.156,33.1236 2.0743,4.2814 3.5092,8.0465 3.1888,8.3669 -0.3204,0.3204 -2.6175,-2.4457 -5.1047,-6.1468 z m -15.6649,-36.8616 c -6.5553,-3.9091 -7.0309,-4.8628 -1.4557,-2.9193 2.2374,0.78 4.4076,1.0787 4.8224,0.6639 0.4149,-0.4149 -8.7168,-18.6343 -20.2927,-40.4875 -41.1376,-77.66103 -61.2407,-118.89256 -82.4312,-169.06657 -7.7146,-18.26639 -8.3799,-19.35967 -10.1414,-16.66667 -0.7196,1.1 -4.0085,8.72528 -7.3087,16.94507 -3.3002,8.21978 -10.5115,25.20853 -16.0251,37.75276 -5.5135,12.54424 -10.0247,23.8567 -10.0247,25.13881 0,1.28212 1.8549,4.09337 4.1219,6.24724 2.267,2.15387 5.4119,5.71612 6.9888,7.91612 2.4113,3.36421 1.5282,2.94949 -5.5559,-2.60913 -4.6325,-3.63502 -9.0456,-7.77287 -9.8068,-9.19523 -2.465,-4.60589 -0.2436,-13.14576 8.5483,-32.86231 4.7416,-10.63333 11.2175,-25.87954 14.3909,-33.88046 6.4418,-16.24156 11.7352,-23.59076 16.3735,-22.7325 4.6001,0.85122 9.4548,7.24343 14.2209,18.72495 15.0048,36.14653 45.6606,99.99157 68.7688,143.22132 31.6124,59.1387 32.3251,60.6011 33.2158,68.1621 1.0888,9.2423 -0.5431,10.3382 -8.4091,5.6474 z m -20.5675,-27.7681 c -8.1217,-9.0804 -14.1505,-19.6397 -40.3701,-70.708 -15.5095,-30.20817 -35.9114,-73.57065 -40.1491,-85.33337 -2.2426,-6.22506 -6.1914,-26.02339 -5.3568,-26.85795 0.6817,-0.68179 1.1604,0.31853 17.496,36.56615 14.9095,33.08334 37.242,78.05307 57.9904,116.77177 14.1834,26.4677 19.2418,36.8227 18.3995,37.665 -0.2212,0.2211 -3.8256,-3.4255 -8.0099,-8.1036 z"
       id="path943" />
    <path
       style="fill:#000000;stroke-width:1.33333"
       d="m -3807.6408,5427.1742 v -719.9999 h 1280.0001 1280 v 719.9999 720 h -1280 -1280.0001 z m 1171.0424,137.4649 c 28.6221,-14.7052 51.4867,-24.1737 70.9792,-29.3934 5.8785,-1.5741 11.5785,-3.4122 12.6667,-4.0847 1.5805,-0.9769 1.9967,-4.7858 2.0693,-18.9381 0.079,-15.4986 0.5194,-18.919 3.5166,-27.3349 14.0238,-39.3777 45.3073,-36.3408 57.8879,5.6196 1.7939,5.9832 2.3457,11.9501 2.1888,23.6689 l -0.2098,15.6689 3.5962,1.8411 c 1.9778,1.0126 8.2984,3.1241 14.0456,4.6922 17.5688,4.7936 40.2608,14.3746 68.4882,28.9173 14.8158,7.633 28.1658,13.8782 29.6667,13.8782 4.0216,0 3.4704,-3.9244 -2.1117,-15.0333 -11.1635,-22.2159 -16.9142,-31.0597 -25.4006,-39.0622 -8.2566,-7.7859 -8.5216,-8.2346 -6.9278,-11.7325 2.322,-5.0964 1.3874,-7.2724 -21.5628,-50.2059 -33.1871,-62.0838 -59.0365,-114.9283 -77.2705,-157.9661 -14.4603,-34.1307 -15.15,-34.1922 -27.8221,-2.4802 -2.8895,7.2308 -9.511,22.8487 -14.7146,34.7064 -7.1563,16.3077 -9.461,23.0296 -9.461,27.594 0,5.1902 -0.4915,6.2777 -3.5134,7.7738 -2.1498,1.0642 -5.251,5.1033 -7.9898,10.406 -26.0122,50.3639 -38.0259,72.9774 -60.9177,114.6667 -36.1271,65.7928 -40.8505,74.8428 -40.8838,78.3333 -0.02,2.1361 0.7515,3 2.6804,3 1.4899,0 15.4399,-6.5408 31,-14.5351 z m -31.0236,9.5351 c 0.011,-1.2833 2.3193,-6.5333 5.131,-11.6667 2.8117,-5.1333 18.7626,-34.2081 35.4465,-64.6106 16.6838,-30.4025 38.1262,-70.4525 47.6497,-89 18.7176,-36.4537 18.1035,-35.7383 27.0254,-31.4837 2.5824,1.2314 5.0745,1.8596 5.5382,1.396 0.4636,-0.4636 -1.3743,-3.8635 -4.0843,-7.5552 -2.837,-3.8648 -4.6672,-7.7094 -4.3143,-9.0627 0.5523,-2.1172 0.6284,-2.1016 0.7677,0.1572 0.085,1.3792 4.1344,7.0526 8.9985,12.6076 5.2139,5.9545 8.1727,10.3238 7.2086,10.6451 -0.8994,0.2998 -6.0067,-1.7037 -11.3497,-4.4523 -5.3429,-2.7486 -10.3386,-4.6117 -11.1014,-4.1403 -0.7628,0.4715 -9.157,16.0016 -18.6537,34.5114 -14.7837,28.8147 -33.1752,62.7905 -78.1227,144.3209 -8.8959,16.1363 -10.1002,19.3333 -7.2826,19.3333 0.8482,0 7.8982,-3.5417 15.6666,-7.8705 18.2253,-10.1557 39.8536,-20.3043 57.3941,-26.9311 14.6116,-5.5202 29.2785,-9.7613 30.2831,-8.7567 0.3252,0.3252 -2.5912,1.3404 -6.4808,2.2561 -17.9866,4.2346 -54.2513,19.8383 -81.7386,35.1699 -14.0777,7.8522 -18.0122,8.9751 -17.9813,5.1323 z m 276.6479,-5.8409 c -27.1918,-15.1209 -58.073,-28.2257 -84.3162,-35.7808 -7.9958,-2.3019 -9.7891,-3.3337 -10.4635,-6.0209 -0.4477,-1.7836 -0.5027,-4.0187 -0.1223,-4.9668 0.3804,-0.9481 0.739,-0.1474 0.7968,1.7795 0.1434,4.7715 1.8514,5.888 14.1521,9.2511 21.5637,5.8957 54.1981,19.9136 80.5552,34.6021 7.8724,4.3872 15.0775,7.9767 16.0112,7.9767 2.7475,0 0.9428,-4.3092 -9.9583,-23.7776 -9.5792,-17.1078 -10.8938,-18.7932 -21.4944,-27.5557 -6.2101,-5.1333 -12.9118,-11.0638 -14.8925,-13.1789 l -3.6013,-3.8455 5.5501,0.8427 c 3.0525,0.4634 6.5025,1.2081 7.6667,1.6548 1.4365,0.5513 2.1165,0.062 2.1165,-1.5224 0,-1.2841 -11.3313,-23.6983 -25.1808,-49.8093 -37.8966,-71.4484 -53.8636,-104.3499 -76.4219,-157.4747 -4.5485,-10.7116 -7.7872,-16.6667 -9.0642,-16.6667 -1.2977,0 -4.4283,6.0132 -9.0241,17.3333 -9.8889,24.3581 -24.6943,58.0592 -25.2584,57.4951 -0.2602,-0.2602 3.9431,-10.603 9.3408,-22.9841 5.3976,-12.381 12.3619,-28.9067 15.4761,-36.7238 3.1143,-7.8171 6.4087,-15.2336 7.3209,-16.4812 1.5022,-2.0544 1.8548,-2.0723 3.7371,-0.1899 1.1431,1.1431 4.9173,8.8597 8.3871,17.1478 20.0683,47.9366 38.9304,86.6464 81.4079,167.0695 11.2325,21.2666 20.6156,39.8666 20.851,41.3333 0.3444,2.1439 -0.4214,2.7486 -3.9065,3.0846 -3.8316,0.3694 -4.1745,0.7179 -2.9528,3.0007 0.7603,1.4205 6.0111,6.4337 11.6684,11.1404 9.5451,7.9411 10.9972,9.87 20.1589,26.7774 10.9615,20.2288 12.5131,24.6688 8.6159,24.6543 -1.3688,-0.01 -9.0888,-3.6794 -17.1555,-8.165 z m -257.349,-11.8513 c -1.2893,-2.0861 6.4257,-17.5439 31.6322,-63.3784 12.1202,-22.0389 29.6928,-54.8547 39.0501,-72.9239 9.3574,-18.0693 17.8813,-33.1862 18.9419,-33.5932 1.0607,-0.407 8.5455,2.5587 16.6328,6.5905 15.7606,7.8572 18.403,8.4958 21.6635,5.2353 4.3024,-4.3023 2.4777,-7.4462 -12.7384,-21.9481 -13.1731,-12.5548 -14.7212,-14.5004 -13.8294,-17.3803 2.3514,-7.5932 22.4753,-52.9985 24.8108,-55.9804 l 2.5553,-3.2626 2.4234,2.8698 c 1.3328,1.5783 8.6126,16.5783 16.1772,33.3333 16.22,35.9256 35.5615,74.9642 57.7015,116.4636 16.0772,30.1354 20.2572,39.2907 18.9237,41.4484 -0.3958,0.6404 -4.1589,0.8049 -8.3624,0.3656 -8.7608,-0.9157 -11.3848,0.8265 -10.6629,7.0795 0.3496,3.0268 2.8129,5.3436 13.1997,12.4139 26.7376,18.2002 33.3451,24.468 37.72,35.7804 3.9864,10.308 2.9635,10.2744 -21.1566,-0.6949 -19.0728,-8.6739 -43.5146,-18.3083 -50.0035,-19.7104 -11.9775,-2.5881 -17.8831,-7.2911 -14.9605,-11.9139 0.4991,-0.7894 1.2202,0.3647 1.6024,2.5647 0.6181,3.558 1.5789,4.2693 8.6949,6.4373 14.5197,4.4235 30.4101,10.5552 49.5401,19.1163 16.5391,7.4017 25.7932,10.162 25.7932,7.6935 0,-0.414 -1.2777,-3.7228 -2.8393,-7.3528 -2.2699,-5.2767 -5.1439,-8.4255 -14.3333,-15.7038 -6.3218,-5.007 -16.294,-12.2738 -22.1607,-16.1484 -12.3824,-8.1779 -14,-9.9014 -14,-14.9167 0,-4.8059 3.2189,-6.4587 12.5791,-6.4587 5.7573,0 7.4209,-0.4552 7.4209,-2.0307 0,-1.1169 -4.8716,-11.4669 -10.8259,-23 -34.8108,-67.4271 -50.468,-98.8853 -62.5312,-125.636 -7.4406,-16.5 -14.7603,-32.0021 -16.266,-34.4492 -2.6831,-4.3606 -2.7878,-4.3991 -5.2539,-1.9331 -2.2107,2.2108 -21.8585,45.2678 -24.4053,53.4828 -0.8102,2.6136 0.3666,4.3933 7.4939,11.3333 4.6503,4.5281 11.2638,10.6639 14.6967,13.6352 7.3085,6.3259 9.2161,11.4436 5.7098,15.3181 -3.6396,4.0216 -8.3407,3.1902 -23.2856,-4.1182 -7.5704,-3.7021 -14.9843,-6.5521 -16.4753,-6.3333 -2.0528,0.3012 -6.3962,7.5185 -17.8923,29.7311 -8.3497,16.1333 -26.1656,49.4333 -39.5908,74 -28.9618,52.997 -30.0408,55.1022 -30.0408,58.6135 0,4.2566 4.2139,3.4179 20.5327,-4.0864 17.4428,-8.0211 42.2074,-17.7525 48.8042,-19.1779 2.5647,-0.5542 6.9131,-1.8996 9.6631,-2.9899 l 5,-1.9822 0.265,-10.1886 0.2649,-10.1885 0.4626,9.79 c 0.273,5.7753 -0.1304,10.5046 -0.9836,11.5327 -0.7955,0.9585 -5.4729,2.8091 -10.3943,4.1124 -11.501,3.0459 -33.9755,11.7232 -54.2812,20.9578 -19.158,8.7126 -21.4997,9.4953 -22.6824,7.5815 z m 8.6824,-10.6791 c 0,-3.4201 3.6058,-10.5343 26.4672,-52.2193 10.1781,-18.5585 26.0932,-48.2056 35.367,-65.8825 9.2738,-17.6769 18.0626,-33.2268 19.5307,-34.5554 2.5961,-2.3495 3.0252,-2.2484 15.6522,3.6862 7.1406,3.356 14.5912,6.4569 16.557,6.8909 4.9055,1.0831 10.1582,-1.1689 11.9623,-5.1284 2.4216,-5.3148 -0.7889,-10.5666 -12.3592,-20.217 -12.723,-10.6119 -15.8439,-14.419 -15.8439,-19.3274 0,-4.1468 16.3078,-42.3139 20.0591,-46.9464 2.2833,-2.8198 2.4329,-2.8341 5.0341,-0.48 1.4745,1.3344 7.321,12.7292 12.9922,25.3218 12.1118,26.8935 40.6827,84.4814 59.4847,119.8978 14.6114,27.5228 15.767,32.008 8.4299,32.7183 -6.8591,0.664 -11.318,3.0875 -12.2085,6.6354 -1.4424,5.7469 1.192,10.0359 9.5738,15.5872 13.936,9.2298 32.4302,23.4288 35.924,27.5809 7.9628,9.4633 2.3584,11.7545 -12.3186,5.0363 -13.8852,-6.3558 -33.1248,-13.8551 -46.0404,-17.9457 -6.4551,-2.0445 -12.2231,-4.6692 -12.8179,-5.8326 -0.5947,-1.1635 -1.4528,-8.1154 -1.9068,-15.4488 -1.3188,-21.3024 -6.4621,-35.857 -16.836,-47.6423 -7.5282,-8.5525 -16.404,-12.0985 -28.7255,-11.4763 -12.7471,0.6437 -20.4515,5.2443 -28.2805,16.8874 -7.5217,11.1861 -11.0103,22.9505 -11.9302,40.2312 -0.4391,8.2485 -1.4915,15.1959 -2.5617,16.9109 -1.251,2.0048 -5.4565,4.0211 -13.5107,6.4774 -13.1143,3.9995 -32.6636,11.6239 -45.6943,17.8212 -10.3408,4.9179 -16,5.4199 -16,1.4192 z m 82.3647,-16.0151 c 1.6672,-0.6696 3.5792,-2.5816 4.2488,-4.2489 0.8626,-2.1479 1.2421,-2.3791 1.302,-0.7932 0.046,1.2309 -0.8584,3.1809 -2.0108,4.3333 -1.1523,1.1524 -3.1023,2.0572 -4.3333,2.0107 -1.5858,-0.06 -1.3546,-0.4393 0.7933,-1.3019 z m 3.1964,-19.2802 c -0.5906,-37.6199 21.9582,-65.2451 44.5178,-54.5399 9.1719,4.3524 20.2509,20.0325 22.5203,31.8732 0.4217,2.2 -0.3636,0.9693 -1.745,-2.735 -7.4242,-19.9077 -17.9121,-29.9317 -31.3171,-29.9317 -11.8319,0 -24.2261,12.514 -29.7129,30 -1.1505,3.6667 -2.538,13.5667 -3.0833,22 l -0.9914,15.3334 z m 69.352,0.6666 c -0.1517,-4.7666 -0.56,-11.0666 -0.9073,-14 l -0.6315,-5.3333 1.3638,5.3333 c 0.75,2.9334 1.1583,9.2334 0.9073,14 l -0.4565,8.6667 z m 5.3075,-8.6666 c -0.5572,-14.2846 -6.3897,-30.9354 -14.6184,-41.7328 -4.6106,-6.0497 -13.3475,-10.8714 -21.4344,-11.8292 -18.3081,-2.1683 -32.4123,9.8058 -40.3174,34.2286 -1.3055,4.0334 -2.406,6.3059 -2.4454,5.0501 -0.1234,-3.9324 5.4452,-17.4201 10.1349,-24.5473 7.6811,-11.6735 19.1358,-17.4253 32.0482,-16.0927 8.2425,0.8507 17.0871,5.505 22.3525,11.7625 8.801,10.4594 16.0115,31.3985 15.0329,43.6552 l -0.4929,6.1722 z m -79.8575,-6 c 0,-3.3 0.2601,-4.65 0.5779,-3 0.3178,1.65 0.3178,4.35 0,6 -0.3178,1.65 -0.5779,0.3 -0.5779,-3 z"
       id="path267" />
  </g>
</svg>
